<?xml version="1.0" encoding="UTF-8"?>
<svg id="Layer_2" data-name="Layer 2" xmlns="http://www.w3.org/2000/svg" viewBox="0 0 216 216">
  <defs>
    <style>
      .cls-1 {
        fill: #333;
        stroke-width: 0px;
      }
    </style>
  </defs>
  <g id="Layer_1-2" data-name="Layer 1">
    <path class="cls-1" d="M181,15c11.03,0,20,8.97,20,20v146c0,11.03-8.97,20-20,20H35c-11.03,0-20-8.97-20-20V35c0-11.03,8.97-20,20-20h146M181,0H35C15.67,0,0,15.67,0,35v146c0,19.33,15.67,35,35,35h146c19.33,0,35-15.67,35-35V35c0-19.33-15.67-35-35-35h0Z"/>
    <rect class="cls-1" x="27" y="27" width="162" height="162" rx="30" ry="30"/>
  </g>
</svg>