<?xml version="1.0" encoding="UTF-8"?>
<svg id="Layer_2" data-name="Layer 2" xmlns="http://www.w3.org/2000/svg" viewBox="0 0 216 216">
  <defs>
    <style>
      .cls-1 {
        stroke: #333;
        stroke-miterlimit: 10;
        stroke-width: 7px;
      }

      .cls-1, .cls-2 {
        fill: #333;
      }

      .cls-2 {
        stroke-width: 0px;
      }
    </style>
  </defs>
  <g id="Layer_2-2" data-name="Layer 2">
    <g id="Layer_1-2" data-name="Layer 1-2">
      <path class="cls-2" d="M181,15c11.03,0,20,8.97,20,20v146c0,11.03-8.97,20-20,20H35c-11.03,0-20-8.97-20-20V35c0-11.03,8.97-20,20-20h146M181,0H35C15.67,0,0,15.67,0,35v146c0,19.33,15.67,35,35,35h146c19.33,0,35-15.67,35-35V35c0-19.33-15.67-35-35-35h0Z"/>
      <path class="cls-1" d="M109.5,116.73v10.54c0,2.48-.5,4.26-1.5,5.33s-2.25,1.61-3.75,1.61c-1.58,0-2.88-.54-3.88-1.61s-1.5-2.85-1.5-5.33v-17.48c18.25-6.69,30.71-13.39,37.38-20.08,3.75-3.72,5.62-8.39,5.62-14.01,0-9.25-3.4-17.17-10.19-23.74-6.79-6.57-15.61-9.85-26.44-9.85-5.5,0-10.69.62-15.56,1.86s-10.81,3.55-17.81,6.94v10.66c0,2.48-.48,4.26-1.44,5.33-.96,1.08-2.23,1.61-3.81,1.61s-2.75-.54-3.75-1.61-1.5-2.85-1.5-5.33v-17.48c13-5.7,21.42-9.05,25.25-10.04,6.5-1.57,13-2.36,19.5-2.36,13.92,0,25.1,4.13,33.56,12.4,8.46,8.26,12.69,18.72,12.69,31.36,0,7.77-2.52,14.65-7.56,20.64s-16.81,12.87-35.31,20.64ZM98.75,158.39h10.5c3.67,0,6.77,1.26,9.31,3.78s3.81,5.56,3.81,9.11-1.31,6.69-3.94,9.17-5.69,3.72-9.19,3.72h-10.5c-3.58,0-6.65-1.26-9.19-3.78s-3.81-5.52-3.81-8.99c0-3.72,1.29-6.82,3.88-9.3,2.58-2.48,5.62-3.72,9.12-3.72h.01Z"/>
    </g>
  </g>
</svg>